<svg width="24" height="24" fill="none" xmlns="http://www.w3.org/2000/svg"><g clip-path="url(#clip0_1_457)"><path fill-rule="evenodd" clip-rule="evenodd" d="M5.333 0A5.333 5.333 0 000 5.333v13.334A5.333 5.333 0 005.333 24h6.673V14H9.333v-3.446l2.673-.002-.004-2.03c0-2.81.81-4.522 4.331-4.522h3.633v3.447h-2.534c-1.371 0-1.436.482-1.436 1.38l-.006 1.726H20l-.388 3.446-3.619.001-.003 10h2.677A5.333 5.333 0 0024 18.667V5.333A5.333 5.333 0 0018.667 0H5.333z" fill="#939DAE"/></g><defs><clipPath id="clip0_1_457"><path fill="#fff" d="M0 0h24v24H0z"/></clipPath></defs></svg>