<svg width="24" height="24" fill="none" xmlns="http://www.w3.org/2000/svg"><g clip-path="url(#clip0_1_461)"><path fill-rule="evenodd" clip-rule="evenodd" d="M5.333 0A5.333 5.333 0 000 5.333v13.334A5.333 5.333 0 005.333 24h13.334A5.333 5.333 0 0024 18.667V5.333A5.333 5.333 0 0018.667 0H5.333zm2.303 18.667V8.766H4.198v9.9h3.438zM4 5.709C4 4.74 4.771 4 5.938 4c1.177 0 1.906.74 1.917 1.71.01.948-.74 1.707-1.938 1.707h-.021C4.74 7.417 4 6.657 4 5.71zm8.958 4.466c.451-.678 1.265-1.64 3.094-1.64 2.26 0 3.948 1.42 3.948 4.457v5.675h-3.428V13.37c0-1.328-.5-2.237-1.738-2.237-.95 0-1.511.609-1.762 1.199-.082.218-.114.509-.114.808v5.526H9.531c.042-8.972 0-9.901 0-9.901h3.427v1.409z" fill="#939DAE"/></g><defs><clipPath id="clip0_1_461"><path fill="#fff" d="M0 0h24v24H0z"/></clipPath></defs></svg>