<svg width="156" height="32" fill="none" xmlns="http://www.w3.org/2000/svg"><g clip-path="url(#clip0_1_7)" fill-rule="evenodd" clip-rule="evenodd" fill="#0A61F7"><path d="M139.134 7.336h-3.256a.187.187 0 00-.17.112l-4.954 11.294-4.956-11.294a.184.184 0 00-.169-.112h-3.281a.185.185 0 00-.156.088.191.191 0 00-.011.18l8.357 17.848a.186.186 0 00.167.107h.096a.183.183 0 00.167-.107l8.334-17.848a.19.19 0 00-.011-.18.185.185 0 00-.157-.088zm-17.244 8.227h-7.139a.187.187 0 00-.185.188v2.643c0 .104.083.188.185.188h3.983v3.276c-.994.674-2.02.975-3.312.975-1.777 0-3.231-.59-4.321-1.752-1.096-1.19-1.652-2.72-1.652-4.547 0-1.851.533-3.382 1.581-4.549 1.07-1.187 2.481-1.79 4.195-1.79.137 0 3.359.013 4.936 1.124a.186.186 0 00.189.013l.102-.052a.189.189 0 00.085-.248l-1.613-3.495a.184.184 0 00-.118-.102c-1.383-.385-3.124-.415-3.624-.415-2.635 0-4.848.909-6.578 2.7-1.704 1.791-2.568 4.084-2.568 6.814 0 2.715.889 5 2.643 6.79 1.776 1.792 4.045 2.7 6.743 2.7 2.769 0 4.989-.813 6.598-2.416a.187.187 0 00.055-.134v-7.723a.186.186 0 00-.185-.188zm-18.906-8.227H99.99a.187.187 0 00-.185.188v10.585L89.575 7.41a.181.181 0 00-.133-.058h-.275a.186.186 0 00-.185.188v17.83c0 .104.083.188.185.188h2.993a.187.187 0 00.186-.188V14.763l10.251 10.739a.184.184 0 00.133.057h.254a.187.187 0 00.185-.188V7.524a.187.187 0 00-.185-.188zm-17.696 0h-2.993a.187.187 0 00-.185.188V25.37c0 .104.083.188.185.188h2.993a.187.187 0 00.186-.188V7.524a.187.187 0 00-.186-.188zm-6.396.017h-3.304a.185.185 0 00-.174.123l-3.711 10.221-3.974-10.225a.185.185 0 00-.172-.119h-.194a.186.186 0 00-.172.12l-3.953 10.222L59.55 7.476a.186.186 0 00-.174-.123h-3.329a.181.181 0 00-.153.082.19.19 0 00-.019.175l6.995 17.83a.186.186 0 00.172.12h.18a.185.185 0 00.17-.118l4.078-10.074 4.093 10.074a.184.184 0 00.17.117h.181a.185.185 0 00.172-.118l6.978-17.83a.191.191 0 00-.02-.176.184.184 0 00-.153-.082zM54.02 16.661c-.915-.853-2.483-1.522-4.661-1.988-1.406-.29-2.358-.599-2.827-.916-.463-.335-.689-.785-.689-1.377 0-1.413.972-2.191 2.737-2.191 1.689 0 3.518.532 4.66 1.356a.177.177 0 00.193.014l.147-.078a.19.19 0 00.086-.235L52.24 7.58a.186.186 0 00-.125-.113 14.019 14.019 0 00-3.513-.447c-1.86 0-3.32.5-4.457 1.528-1.121 1.011-1.69 2.35-1.69 3.977 0 1.434.441 2.566 1.353 3.465.918.855 2.47 1.524 4.614 1.988 2.684.563 3.635 1.195 3.635 2.414 0 1.496-1.246 2.462-3.174 2.462-2.104 0-3.605-.64-4.868-2.077a.184.184 0 00-.139-.063h-.095a.185.185 0 00-.173.12l-1.122 2.897a.19.19 0 00.053.212c1.587 1.36 3.748 2.08 6.249 2.08 1.993 0 3.678-.549 4.875-1.585 1.15-1 1.758-2.49 1.758-4.313 0-1.458-.473-2.625-1.401-3.465zm101.957-9.193a.186.186 0 00-.163-.097h-3.511a.183.183 0 00-.158.09l-4.339 7.162-4.339-7.162a.184.184 0 00-.158-.09h-3.487a.185.185 0 00-.163.097.19.19 0 00.005.192l6.465 10.454v7.37c0 .104.083.189.186.189h3.006a.188.188 0 00.186-.189v-7.418l6.464-10.406a.189.189 0 00.006-.192zM33.906 15.985c-.09-.006-.174.079-.21.222-.635 1.552-1.57 2.918-2.245 3.793-1.524 2.027-3.042 3.613-4.64 4.85-2.302 1.838-4.729 3.166-7.215 3.946-2.823.954-5.644 1.37-8.39 1.236h-.093c-.073 0-.112.052-.112.102 0 .043.03.09.089.1C13.213 31.404 15.688 32 18.445 32c5.403 0 8.986-2.548 11.042-4.686 2.943-3.063 4.643-7.225 4.546-11.132-.004-.17-.098-.194-.127-.197zM8.944 24.313c.118 0 .239 0 .361-.002.031 0 .06-.02.07-.049a.079.079 0 00-.016-.084c-1.983-2.005-2.955-4.665-2.955-7.913 0-3.085 1.261-6.209 3.459-8.57 2.306-2.477 5.35-3.842 8.573-3.842 3.913 0 7.733 2.172 9.97 5.668a.08.08 0 00.067.036.077.077 0 00.064-.04c.684-1.266 1.346-2.923 1.688-3.826a.233.233 0 00-.046-.238C27.01 1.91 22.757-.077 18.503.003A15.995 15.995 0 007.218 4.63C4.215 7.6 2.562 11.588 2.562 15.864c0 1.479.097 4.273 1.283 6.454.847 1.558 1.83 1.995 5.1 1.995z"/><path d="M15.538 28.36l-.01.011.065-.027c4.856-1.543 9.385-4.727 12.885-9.096l-.003.008c.054-.065.102-.13.154-.196l.177-.225c6.89-8.783 5.208-16.41 5.208-16.41l-.001.002c-.13-.69-.352-1.346-.724-1.78a1.667 1.667 0 00-.294-.26.074.074 0 00-.078-.005.077.077 0 00-.042.067s-.01.296-.01.341c-.084 1.95-.495 3.638-1.498 6.075a.068.068 0 00-.01.017 33.363 33.363 0 01-2.819 5.398.083.083 0 00-.02.022c-2.13 3.446-4.954 6.374-8.398 8.703-2.918 2.023-5.728 3.417-8.352 4.143a14.464 14.464 0 01-3.155.573c-1.534.096-3.76-.13-5.163-1.403-1.546-1.402-2.054-4.207-1.394-7.777a.079.079 0 00-.04-.084.076.076 0 00-.092.017C-.735 19.43-.181 23.879.875 25.538c1.567 2.46 4.62 3.821 8.336 3.821a18.86 18.86 0 003.126-.281c1.069-.172 2.154-.388 3.201-.718z"/></g><defs><clipPath id="clip0_1_7"><path fill="#fff" d="M0 0h156v32H0z"/></clipPath></defs></svg>