<svg width="24" height="24" fill="none" xmlns="http://www.w3.org/2000/svg"><g clip-path="url(#clip0_1_469)"><path fill-rule="evenodd" clip-rule="evenodd" d="M5.333 0A5.333 5.333 0 000 5.333v13.334A5.333 5.333 0 005.333 24h13.334A5.333 5.333 0 0024 18.667V5.333A5.333 5.333 0 0018.667 0H5.333zm13.033 9.095c0-.147 0-.293-.01-.439A7.172 7.172 0 0020 6.916c-.6.27-1.238.445-1.889.52a3.334 3.334 0 001.442-1.853 6.37 6.37 0 01-2.081.813 3.233 3.233 0 00-3.651-.807c-.398.17-.76.417-1.064.73a3.371 3.371 0 00-.71 1.09 3.44 3.44 0 00-.25 1.288c0 .26.028.518.082.771a9.13 9.13 0 01-3.746-1.022 9.364 9.364 0 01-3.016-2.498 3.44 3.44 0 00-.364 2.457 3.365 3.365 0 001.379 2.043 3.255 3.255 0 01-1.483-.427v.041c0 .778.261 1.531.74 2.133a3.266 3.266 0 001.89 1.169 3.407 3.407 0 01-1.481.062 3.36 3.36 0 001.168 1.67 3.23 3.23 0 001.897.664 6.463 6.463 0 01-4.07 1.437c-.274 0-.529-.01-.793-.04a9.102 9.102 0 005.036 1.51c6.03 0 9.33-5.125 9.33-9.572z" fill="#939DAE"/></g><defs><clipPath id="clip0_1_469"><path fill="#fff" d="M0 0h24v24H0z"/></clipPath></defs></svg>