<svg width="24" height="24" fill="none" xmlns="http://www.w3.org/2000/svg"><g clip-path="url(#clip0_1_465)"><path fill-rule="evenodd" clip-rule="evenodd" d="M5.333 0A5.333 5.333 0 000 5.333v13.334A5.333 5.333 0 005.333 24h13.334A5.333 5.333 0 0024 18.667V5.333A5.333 5.333 0 0018.667 0H5.333zm.83 6.863c3.71-.292 8.029-.23 11.672 0 1.305.045 1.94 1.305 2.028 2.304.183 2.099.183 3.423 0 5.521-.087.999-.893 2.275-2.027 2.46-3.621.263-7.918.23-11.672 0-1.172-.139-1.94-1.461-2.028-2.46-.181-2.098-.181-3.292 0-5.39.086-.999.875-2.314 2.027-2.435zM10 9.276v5.378l5-2.689-5-2.69z" fill="#939DAE"/></g><defs><clipPath id="clip0_1_465"><path fill="#fff" d="M0 0h24v24H0z"/></clipPath></defs></svg>